<svg xmlns="http://www.w3.org/2000/svg" viewBox="0 0 18 50" width="18" height="50">
	<style>
		tspan { white-space:pre }
		.shp0 { fill: #ec644b } 
	</style>
	<g id="отзывы наших клиентов">
		<g id="Анисимова Ольга">
			<g id="слайдер">
				<path id="Rounded Rectangle 2 copy 7" class="shp0" d="M15.81 46.33L3.02 24.63C2.79 24.24 2.42 24.24 2.19 24.63C1.97 25.01 1.97 25.64 2.19 26.03L14.98 47.73C15.21 48.12 15.58 48.12 15.81 47.73C16.03 47.35 16.03 46.72 15.81 46.33ZM15.84 3.69L3 25.48C2.78 25.87 2.41 25.87 2.18 25.48C1.95 25.09 1.95 24.46 2.18 24.08L15.01 2.28C15.24 1.89 15.61 1.89 15.84 2.28C16.07 2.67 16.07 3.3 15.84 3.69Z" />
			</g>
		</g>
	</g>
</svg>