<svg xmlns="http://www.w3.org/2000/svg" viewBox="0 0 18 50" width="18" height="50">
	<style>
		tspan { white-space:pre }
		.shp0 { fill: #ec644b } 
	</style>
	<g id="отзывы наших клиентов">
		<g id="Анисимова Ольга">
			<g id="слайдер">
				<path id="Rounded Rectangle 2 copy 2" class="shp0" d="M2.19 46.37L14.98 24.66C15.21 24.27 15.58 24.27 15.81 24.66C16.03 25.04 16.03 25.67 15.81 26.06L3.02 47.77C2.79 48.15 2.42 48.15 2.19 47.77C1.97 47.38 1.97 46.75 2.19 46.37ZM2.16 3.72L15 25.51C15.22 25.9 15.59 25.9 15.82 25.51C16.05 25.13 16.05 24.5 15.82 24.11L2.99 2.31C2.76 1.93 2.39 1.93 2.16 2.31C1.93 2.7 1.93 3.33 2.16 3.72Z" />
			</g>
		</g>
	</g>
</svg>